<svg xmlns="http://www.w3.org/2000/svg" width="160" height="160" fill="none"><path fill="#212529" d="M35.75 119.903a.353.353 0 0 1-.355-.355v-5.963a.356.356 0 0 1 .605-.251.356.356 0 0 1 .104.251v5.963a.353.353 0 0 1-.355.355ZM51.331 68.97c-8.234 2.928-9.974-12.707-2.36-10.17 7.613 2.538 4.383-11.127 4.383-11.127-8.66-29.584 17.943-35.228 17.943-35.228s2.822-1.74 6.726 3.656c0 0 8.288-3.567 14.056 7.081 5.767 10.648-.87 27.189 2.147 32.033 3.265 5.2 6.389-.443 8.323 4.295 1.633 3.993-6.335 8.519-8.323 8.572l-42.895.887Z"/><path fill="#212529" d="M49.327 69.697c-2.077 0-3.372-1.243-4.047-2.13-1.775-2.36-2.059-6.034-.621-8.022.958-1.33 2.52-1.721 4.42-1.082 1.419.461 2.52.372 3.264-.32 2.485-2.272.728-10.08.657-10.382-2.75-9.459-2.236-17.48 1.562-23.834 5.413-9.051 15.777-11.624 16.611-11.82.444-.23 3.266-1.42 6.975 3.567 1.545-.5 3.187-.628 4.791-.372 2.645.408 6.407 2.076 9.46 7.702 3.407 6.3 2.537 14.641 1.845 21.332-.497 4.703-.905 8.767.284 10.684 1.562 2.502 3.035 2.325 4.437 2.147 1.402-.177 2.875-.337 3.922 2.218.462 1.136.266 2.379-.585 3.692-1.864 2.857-6.478 5.324-8.058 5.36l-42.841.887a6.281 6.281 0 0 1-2.076.373ZM47.41 58.87a2.502 2.502 0 0 0-2.165 1.082c-1.243 1.74-.959 5.094.603 7.188.763.994 2.467 2.538 5.377 1.49h.107l42.895-.887c1.242-.035 5.66-2.236 7.471-5.022.728-1.118.905-2.13.533-3.053-.835-2.04-1.828-1.934-3.177-1.774-1.349.16-3.337.39-5.13-2.485-1.33-2.112-.886-6.282-.39-11.127.693-6.602 1.544-14.82-1.757-20.924-2.307-4.242-5.395-6.78-8.944-7.347-2.662-.409-4.65.426-4.668.443l-.266.107-.16-.23c-3.673-5.077-6.229-3.586-6.246-3.568l-.054.035h-.053c-.106.036-10.772 2.396-16.22 11.518-3.692 6.176-4.189 14.02-1.474 23.284.089.338 1.97 8.483-.87 11.075-.94.87-2.289 1.011-3.975.461a4.42 4.42 0 0 0-1.437-.266Z"/><path fill="#212529" d="M88.317 32.677h-.107c-9.707-2.769-16.7-11.11-16.77-11.199a.359.359 0 1 1 .55-.461c.07.089 6.92 8.27 16.416 10.968a.355.355 0 0 1 .123.626.337.337 0 0 1-.212.066Z"/><path fill="#212529" d="M84.306 43.643h-.09a.354.354 0 0 1-.319-.39.336.336 0 0 1 .373-.32c.124 0 3.088.178 3.62-4.667.302-2.662-.443-3.461-1.153-4.224-.71-.763-1.384-1.473-1.19-3.479a.357.357 0 0 1 .71.071c-.159 1.686.373 2.254.995 2.929.62.674 1.668 1.792 1.348 4.791-.567 5.04-3.709 5.289-4.294 5.289ZM80.046 33.12h-.053l-4.028-.354a.461.461 0 0 1-.362-.662.426.426 0 0 1 .433-.226l4.046.355a.445.445 0 0 1 .408.48.48.48 0 0 1-.444.408Z"/><path fill="#ADB5BD" d="M95.948 119.548c-1.047-1.828-1.633-2.573-1.402-4.667.337-3.213.851-8.342 1.1-13.169 2.431 4.827 8.252 13.044 18.066 7.898 2.006-1.047-.23-33.116-27.241-43.73l-2.964 4.207a11.605 11.605 0 0 1-1.668 2.059C70.587 82.794 61.607 65.88 61.607 65.88c-27.561 8.252-25.112 31.2-27.632 43.729-1.314 6.548 6.921 3.833 14.854 3.265 3.425-.231 4.046-5.608 4.1-9.832a.232.232 0 0 1 .061-.166.232.232 0 0 1 .4.148l.94 9.477a15.035 15.035 0 0 1-1.455 8.058"/><path fill="#F8F9FA" d="M61.607 65.88s5.183 2.52 7.667-12.387l7.791-.515s.48 14.393 9.406 12.903c0 0-11.252 22.645-24.864 0ZM92.612 31.825a.354.354 0 0 1-.355-.32c-1.1-10.63-9.974-13.345-10.063-13.363a.355.355 0 0 1-.23-.444.337.337 0 0 1 .425-.248c.107.035 2.396.727 4.863 2.786 2.467 2.059 5.111 5.395 5.715 11.198a.356.356 0 0 1-.32.39h-.035ZM92.752 39.563a.355.355 0 0 1-.355-.355v-4.88a.355.355 0 0 1 .71 0v4.88a.355.355 0 0 1-.355.355ZM55.2 29.871h-.09a.372.372 0 0 1-.248-.444c1.74-5.98 6.158-9.228 6.336-9.37a.352.352 0 0 1 .397-.008c.04.025.073.058.1.097a.355.355 0 0 1-.071.497c-.053.017-4.42 3.247-6.087 8.98a.32.32 0 0 1-.337.248ZM54.384 35.746a.373.373 0 0 1-.355-.284 6.585 6.585 0 0 1 0-3 .356.356 0 0 1 .426-.265.336.336 0 0 1 .267.426 6.211 6.211 0 0 0 0 2.68.337.337 0 0 1-.267.425l-.07.018ZM123.81 86.254c5.005 34.518-8.66 36.825-17.197 30.205-4.17-3.23-7.045-8.163-7.79-9.956a.58.58 0 0 1 .142-.676.57.57 0 0 1 .212-.122c1.74-.586 6.797-2.467 8.696-5.111"/><path fill="#212529" d="M114.245 119.778c-2.538 0-5.271-1.029-7.862-3.035-4.419-3.442-7.258-8.571-7.897-10.098a1.029 1.029 0 0 1 .017-.763.97.97 0 0 1 .55-.514c1.545-.515 6.673-2.396 8.519-4.987a.354.354 0 0 1 .497-.071.33.33 0 0 1 .097.1.361.361 0 0 1-.008.397c-1.917 2.679-6.851 4.561-8.874 5.235a.357.357 0 0 0-.142.142.3.3 0 0 0 0 .177c.781 1.864 3.692 6.727 7.685 9.815 3.993 3.088 8.146 3.709 11.358 1.845 3.212-1.863 8.607-8.749 5.271-31.731a.318.318 0 0 1 .006-.138.338.338 0 0 1 .295-.253.356.356 0 0 1 .409.302c1.348 9.335 1.437 16.93.23 22.556-1.047 4.898-3.017 8.217-5.856 9.885a8.706 8.706 0 0 1-4.295 1.136Z"/><path fill="#212529" d="M137.547 119.424H22.475v.71h115.072v-.71Z"/><path fill="#F8F9FA" d="M123.171 87.372s5.733-12.228 0-12.618c0 0 1.899-5.821-3.265-5.076 0 0-.053-8.234-8.164-6.194 0 0-.816 4.508-4.88 1.9 0 0-3.621-5.502-4.455-.267-.159.959 4.473 4.739 5.289 6.247 2.165 4.029 3.674 11.731 3.159 19.77-.213 3.443-.497 7.81-.426 11.465l12.742-15.227Z"/><path fill="#F8F9FA" d="M112.896 63.023c2.893-1.26 1.438 5.785-1.597 8.075a1.335 1.335 0 0 1-1.118.23c-.728-.195-1.935-1.58-1.172-3.709"/><path fill="#212529" d="M110.5 71.72a1.508 1.508 0 0 1-.408-.053c-.479-.125-.994-.586-1.313-1.19-.32-.603-.497-1.898-.107-2.963a.378.378 0 0 1 .055-.146.358.358 0 0 1 .631.074.368.368 0 0 1-.029.302c-.39 1.119-.177 1.935.071 2.414.249.48.621.763.87.817a.975.975 0 0 0 .816-.16c2.272-1.722 3.549-6.123 2.822-7.347-.071-.107-.231-.39-.87-.125a.354.354 0 0 1-.427-.442.356.356 0 0 1 .143-.197c1.101-.479 1.615.125 1.775.409.941 1.615-.55 6.406-3.017 8.27-.291.22-.646.34-1.012.337Z"/><path fill="#F8F9FA" d="M117.049 66.378c4.259-1.544.639 8.217-3.301 9.282 0 0-1.988.213-1.934-2.094"/><path fill="#212529" d="M113.623 76.014a2.184 2.184 0 0 1-1.491-.532c-.461-.426-.692-1.083-.674-1.917a.353.353 0 0 1 .355-.355h.018a.376.376 0 0 1 .241.12.377.377 0 0 1 .096.253c-.018.62.142 1.082.444 1.366.297.25.677.376 1.064.355 2.059-.586 4.153-3.833 4.774-6.424.249-1.047.196-1.864-.142-2.166-.337-.301-.781-.141-1.153 0a.355.355 0 0 1-.453-.221.362.362 0 0 1 .017-.273.36.36 0 0 1 .205-.18c.799-.284 1.42-.23 1.864.142.443.373.674 1.49.354 2.857-.585 2.485-2.75 6.265-5.306 6.957h-.213v.018Z"/><path fill="#F8F9FA" d="M121.006 70.55c4.028-.782 1.242 8.784-4.774 9.228 0 0-2.662.088-2.361-2.343"/><path fill="#212529" d="M116.215 80.131c-.266 0-1.473-.053-2.183-.834-.443-.48-.603-1.118-.514-1.899a.349.349 0 0 1 .128-.241.36.36 0 0 1 .262-.078.395.395 0 0 1 .32.408c-.071.568.035 1.011.319 1.33.568.622 1.668.604 1.668.604 2.858-.213 4.881-2.626 5.75-4.632.657-1.526.763-2.963.267-3.602-.249-.302-.639-.39-1.172-.284a.355.355 0 0 1-.351-.554.373.373 0 0 1 .227-.156c.994-.195 1.562.195 1.846.55.692.852.621 2.52-.16 4.33-.994 2.29-3.195 4.827-6.371 5.058h-.036Z"/><path fill="#F8F9FA" d="m111.228 64.94-9.016-11.962-3.638 3.763 10.187 10.648a.693.693 0 0 0 .657.178c.479-.142 1.313-.568 1.899-1.97a.669.669 0 0 0 .041-.34.669.669 0 0 0-.13-.317Z"/><path fill="#212529" d="M109.24 67.939a.975.975 0 0 1-.728-.32L98.095 56.74l4.153-4.312 9.264 12.299a1.01 1.01 0 0 1 .141.994c-.656 1.579-1.632 2.04-2.147 2.182a.691.691 0 0 1-.266.036ZM99.07 56.74l9.957 10.4a.33.33 0 0 0 .284.089c.408-.107 1.136-.48 1.686-1.775a.294.294 0 0 0 .014-.158.297.297 0 0 0-.067-.144l-8.767-11.642-3.106 3.23Z"/><path fill="#F8F9FA" d="M59.14 35.09c-1.898 1.224-2.501 1.951-2.253 4.205.16 1.313 1.19 3.603 2.254 4.384 1.065.78 1.846.763 2.272 1.171 1.011.976 1.064 2.023 1.189 3.088.319 2.662 2.786 4.33 5.093 5.715 3.674 2.2 8.803 1.597 11.873-1.385 1.739-1.686 3.248-3.744 3.886-6.087.781-2.893 3.692-5.111 3.763-5.218.78-1.366 1.136-2.449.958-4.028-.23-2.059-3.141-3.834-4.81-5.058-3.868-2.875-6.832-5.892-10.452-9.46a1.296 1.296 0 0 0-1.953.178c-2.573 3.532-2.821 6.407-9.547 10.311"/><path fill="#212529" d="M72.54 55.25h-.107c-5.68-.052-8.465-3.495-9.814-6.37a17.786 17.786 0 0 1-1.562-6.265.337.337 0 0 1 .337-.355h.018a.336.336 0 0 1 .355.337 17.445 17.445 0 0 0 1.508 5.999c1.828 3.904 4.916 5.91 9.158 5.945h.124c4.508 0 7.791-2.343 9.743-6.975 1.473-3.514 1.58-7.08 1.598-7.116a.355.355 0 1 1 .692.017 22.521 22.521 0 0 1-1.633 7.383c-2.04 4.845-5.644 7.4-10.417 7.4Z"/><path fill="#212529" d="M61.18 44.851a4.312 4.312 0 0 1-2.626-.905c-1.1-.887-1.774-2.307-1.987-4.224-.337-3.034.55-3.709 1.349-4.312.798-.603 1.064-.816.905-2.467a.372.372 0 0 1 .319-.39.354.354 0 0 1 .39.32c.196 2.04-.55 2.608-1.189 3.105-.639.497-1.348 1.03-1.064 3.656.532 4.845 3.957 4.525 4.1 4.508a.336.336 0 0 1 .39.301.354.354 0 0 1-.32.39l-.266.018ZM66.345 39.42c.432 0 .781-.533.781-1.19 0-.657-.35-1.189-.78-1.189-.432 0-.782.532-.782 1.19 0 .656.35 1.188.781 1.188ZM64.376 35.834a.462.462 0 0 1-.439-.513.444.444 0 0 1 .332-.374l3.923-1.03a.427.427 0 0 1 .532.302.443.443 0 0 1-.302.55L64.5 35.818l-.124.017ZM70.782 44.851h-.017c-.781-.07-1.278-.337-1.456-.816-.39-1.012.941-2.45 1.225-2.715a.355.355 0 0 1 .497-.018.373.373 0 0 1 0 .515c-.515.532-1.225 1.544-1.047 1.97.177.425.55.337.816.354a.339.339 0 0 1 .337.373.373.373 0 0 1-.355.337Z"/><path fill="#F8F9FA" d="M91.99 58.658c10.184 0 18.439-8.256 18.439-18.44 0-10.183-8.255-18.439-18.439-18.439s-18.44 8.256-18.44 18.44c0 10.183 8.256 18.439 18.44 18.439Z"/><path fill="#212529" d="M91.99 59.03c-10.365 0-18.795-8.448-18.795-18.812a18.794 18.794 0 0 1 37.589 0c0 10.364-8.43 18.812-18.794 18.812Zm0-36.896a18.102 18.102 0 0 0-18.085 18.084c0 9.974 8.11 18.102 18.085 18.102 9.973 0 18.084-8.128 18.084-18.102A18.105 18.105 0 0 0 91.99 22.134Z"/><path fill="#F8F9FA" d="M91.99 55.481c8.243 0 14.925-6.682 14.925-14.925s-6.682-14.925-14.925-14.925-14.925 6.682-14.925 14.925 6.682 14.925 14.925 14.925Z"/><path fill="#212529" d="M91.99 55.836a15.28 15.28 0 1 1 15.28-15.28 15.297 15.297 0 0 1-15.28 15.28Zm0-29.85a14.57 14.57 0 1 0 14.571 14.57 14.592 14.592 0 0 0-14.57-14.57Z"/><path fill="#212529" d="M80.525 39.456c.872 0 1.58-1.08 1.58-2.414 0-1.333-.708-2.413-1.58-2.413-.873 0-1.58 1.08-1.58 2.413 0 1.334.708 2.414 1.58 2.414Z"/><path fill="#F8F9FA" d="M85.14 53.831s10.293-11.89 3.496-27.827L85.14 53.83Z"/><path fill="#212529" d="M85.14 54.185a.355.355 0 0 1-.266-.586c.017-.035 2.555-2.999 4.24-7.861 1.545-4.455 2.663-11.483-.798-19.593a.355.355 0 0 1 .177-.461.355.355 0 0 1 .48.177c3.549 8.341 2.395 15.564.798 20.143-1.721 4.97-4.259 7.933-4.365 8.057a.375.375 0 0 1-.267.124Z"/><path fill="#F8F9FA" d="M48.828 112.875s.266 5.413 0 6.904v-6.904Z"/><path fill="#212529" d="M48.83 120.133h-.053a.371.371 0 0 1-.284-.426c.248-1.438 0-6.762-.018-6.815a.339.339 0 0 1 .337-.355.332.332 0 0 1 .262.085.343.343 0 0 1 .111.252c.018.213.266 5.449 0 6.957a.353.353 0 0 1-.355.302ZM69.522 51.453c-.692 0-1.26-.692-1.26-1.526 0-.834.568-1.544 1.26-1.544.692 0 1.26.692 1.26 1.544 0 .852-.568 1.526-1.26 1.526Zm0-2.36c-.302 0-.55.39-.55.834 0 .444.248.816.55.816.301 0 .55-.373.55-.816 0-.444-.249-.834-.55-.834ZM118.362 83.966a6.884 6.884 0 0 1-.852-.071c-1.544-.23-2.52-.657-2.911-1.26a.934.934 0 0 1-.142-.763l.675.195a.307.307 0 0 0 .089.23c.177.25.709.675 2.378.906l.745.053c3.141 0 5.59-2.857 6.194-4.472a2.169 2.169 0 0 0-.515-2.307.356.356 0 0 1-.085-.11.349.349 0 0 1-.033-.135.335.335 0 0 1 .1-.252.357.357 0 0 1 .497-.036c.054.054 1.385 1.278.692 3.088-.692 1.81-3.318 4.934-6.832 4.934Z"/><path fill="#212529" d="M123.42 86.662a.813.813 0 0 1-.408-.089.359.359 0 0 1-.198-.344.37.37 0 0 1 .123-.245.341.341 0 0 1 .262-.078.335.335 0 0 1 .132.046.994.994 0 0 0 .515-.088c.798-.338 1.721-1.172 1.81-1.438a.304.304 0 0 0-.053-.302l-2.13-3.105a.342.342 0 0 1-.007-.384.336.336 0 0 1 .096-.095.355.355 0 0 1 .497.088l2.129 3.088c.093.136.154.292.178.454.025.163.013.33-.036.487-.195.55-1.331 1.508-2.218 1.863a1.792 1.792 0 0 1-.692.142Z"/><path fill="#212529" d="M123.172 86.61a.373.373 0 0 1-.284-.142l-2.183-3.177a.353.353 0 0 1-.008-.396.357.357 0 0 1 .593-.012l2.183 3.177a.35.35 0 0 1-.106.497.357.357 0 0 1-.195.053Z"/><path fill="#F8F9FA" d="M92.096 128.421c4.273 0 7.738-3.425 7.738-7.649s-3.465-7.649-7.738-7.649c-4.273 0-7.738 3.425-7.738 7.649s3.465 7.649 7.738 7.649Z"/><path fill="#212529" d="M92.185 128.776h-.568l-3.265-.391 2.626-.319v-.089l.302.036a7.263 7.263 0 0 0 6.353-7.241c0-3.798-2.484-6.762-6.034-7.188l-2.91-.337 2.91-.355.142-.053c.136-.05.281-.074.426-.071a7.994 7.994 0 0 1 5.99 2.674 7.997 7.997 0 0 1 1.979 6.253 8.04 8.04 0 0 1-7.951 7.081Zm2.573-14.819c2.2 1.366 3.585 3.851 3.585 6.815a8.037 8.037 0 0 1-4.046 6.992 7.502 7.502 0 0 0 2.431-1.295 7.19 7.19 0 0 0 2.698-4.863 7.24 7.24 0 0 0-1.81-5.697 7.473 7.473 0 0 0-2.858-1.952Z"/><path fill="#212529" d="M91.724 128.742h-.426c-4.029 0-7.294-3.585-7.294-7.969 0-4.383 3.212-8.003 7.17-8.003.29 0 .58.017.87.053 3.584.497 6.3 3.904 6.3 7.95 0 4.047-2.716 7.472-6.3 7.951l-.32.018Zm-.55-15.263c-3.567 0-6.46 3.284-6.46 7.294 0 4.011 2.963 7.259 6.584 7.259h.266c.125.011.25.005.373-.018 3.248-.426 5.697-3.549 5.697-7.241 0-3.691-2.45-6.797-5.697-7.24a5.413 5.413 0 0 0-.763-.054Z"/><path fill="#212529" d="M91.173 126.647c-2.91 0-5.27-2.627-5.27-5.874 0-3.248 2.36-5.857 5.27-5.857l.64.036c2.626.354 4.613 2.857 4.613 5.821 0 2.963-1.987 5.466-4.614 5.821a3.907 3.907 0 0 1-.639.053Zm0-11.021c-2.52 0-4.56 2.307-4.56 5.147 0 2.839 2.04 5.164 4.56 5.164l.533-.036c2.289-.319 4.01-2.52 4.01-5.128 0-2.609-1.721-4.81-4.01-5.112a2.711 2.711 0 0 0-.533-.035ZM98.593 117.171h-1.597a.357.357 0 0 1-.355-.355.354.354 0 0 1 .355-.355h1.597a.353.353 0 0 1 .355.355.356.356 0 0 1-.355.355ZM99.213 118.979h-1.508a.353.353 0 0 1-.355-.355.356.356 0 0 1 .355-.354h1.508a.356.356 0 0 1 .355.354.352.352 0 0 1-.355.355ZM99.817 121.429h-1.828a.357.357 0 0 1-.355-.355.354.354 0 0 1 .355-.355h1.828a.355.355 0 1 1 0 .71ZM99.107 123.985h-1.615a.353.353 0 0 1-.355-.355.356.356 0 0 1 .355-.355h1.615a.357.357 0 0 1 .355.355.354.354 0 0 1-.355.355ZM97.492 126.612H95.93a.353.353 0 0 1-.355-.355.356.356 0 0 1 .355-.355h1.562a.358.358 0 0 1 .355.355.354.354 0 0 1-.355.355Z"/><path fill="#212529" d="M91.741 124.375a2.556 2.556 0 0 1-1.508-.461c-.852-.639-1.278-1.917-1.278-3.78.018-1.598.39-2.52 1.136-2.84 1.153-.497 2.627.834 2.786.976a.355.355 0 0 1 .018.497.327.327 0 0 1-.245.118.336.336 0 0 1-.252-.1c-.337-.302-1.402-1.1-2.023-.834-.621.266-.692.958-.71 2.183 0 1.632.32 2.715.994 3.194.674.479 1.721.302 2.413.089a.327.327 0 0 1 .273.017.34.34 0 0 1 .171.214.334.334 0 0 1-.017.273.343.343 0 0 1-.214.17 4.96 4.96 0 0 1-1.544.284Z"/><path fill="#F8F9FA" d="M63.435 108.278S47 110.745 47.534 113.673c.532 2.928 1.685 4.845.124 8.075-.781 1.615-2.485 3.691-2.946 6.052-.462 2.36.55 5.146 2.822 7.027 4.56 3.78 4.436 6.726 25.609 0 0 0 7.524-1.916 4.294-8.163-3.23-6.247-4.685-3.354-1.774-11.767 0 0 1.33-3.478-2.858-2.91 0 0-3.336.142-4.33-1.438-.994-1.579-1.704-3.975-5.04-2.271Z"/><path fill="#212529" d="M53.036 124.446s2.768-6.691 4.845-7.277c2.076-.585 14.907-4.277 15.724-3.354.816.923-.355 7.046-2.077 7.401-1.721.355-13.523 4.046-12.707 4.969.817.923 13.044-2.307 14.198-1.615s4.224 4.508.852 8.536c-3.372 4.029-19.096 6.886-20.48 5.733-1.384-1.154-7.17-7.578-6.709-9.531.462-1.952-.585-4.135 1.509-3.176 2.094.958 3.602.994 4.845-1.686Z"/><path fill="#212529" d="M55.573 139.389c-2.165 0-4.206-.337-5.324-1.402-4.242-4.011-7.578-7.17-5.271-11.997 2.165-4.543 3.354-6.655 3.372-6.691a.35.35 0 0 1 .088-.105.337.337 0 0 1 .39-.019.355.355 0 0 1 .143.479c-.018.018-1.19 2.13-3.354 6.638-2.165 4.508.94 7.223 5.129 11.18 1.42 1.349 5.27 1.58 10.541.604 7.294-1.331 15.156-4.543 16.15-6.62 1.349-2.751-.585-5.306-2.147-7.347a17.944 17.944 0 0 1-1.19-1.686c-.691-1.189-.035-3.336.604-5.431.568-1.81 1.207-3.886.497-4.383-1.384-.994-9.832.887-13.896 1.792l-2.076.444c-3.603.763-6.886 6.939-6.922 6.992a.35.35 0 0 1-.353.252.36.36 0 0 1-.333-.277.354.354 0 0 1 .065-.294c.142-.266 3.46-6.531 7.4-7.365l2.06-.444c6.495-1.455 12.955-2.768 14.463-1.686 1.118.799.462 2.928-.23 5.182-.568 1.846-1.207 3.94-.657 4.863a15.37 15.37 0 0 0 1.136 1.615c1.58 2.076 3.744 4.934 2.218 8.075-1.242 2.573-9.778 5.768-16.664 7.028-1.58.284-3.763.603-5.84.603Z"/><path fill="#212529" d="M49.752 122.494a.386.386 0 0 1-.337-.213c-.338-.852-3.32-8.288-.959-9.903 2.36-1.615 14.304-4.17 15.103-3.851a.359.359 0 0 1 .213.462.41.41 0 0 1-.444.213c-.816-.089-12.352 2.289-14.464 3.762-1.42.976-.017 6.052 1.207 9.033a.34.34 0 0 1-.177.462l-.142.035ZM59.957 107.942c-1.243 0-2.52-.302-3.284-1.296a.354.354 0 0 1 .072-.497.332.332 0 0 1 .264-.075.33.33 0 0 1 .232.146c1.527 1.988 6.034.426 6.07.408a.346.346 0 0 1 .139-.023.379.379 0 0 1 .136.032.36.36 0 0 1 .186.204.374.374 0 0 1-.213.462c-.124.035-1.828.639-3.602.639Z"/><path fill="#212529" d="M57.703 114.029a.357.357 0 0 1-.319-.537.35.35 0 0 1 .195-.155c1.792-.657 6.087-2.148 6.992-1.669h.054c.284-.124.638-1.047.816-1.845a.358.358 0 0 1 .151-.215.358.358 0 0 1 .257-.052.372.372 0 0 1 .284.426c-.07.32-.461 1.988-1.207 2.325a.727.727 0 0 1-.692-.018c-.479-.212-3.709.728-6.424 1.722l-.107.018ZM50.213 125.83a1.846 1.846 0 1 0 0-3.691 1.846 1.846 0 0 0 0 3.691ZM56.3 107a1.846 1.846 0 1 0 .001-3.691 1.846 1.846 0 0 0 0 3.691Z"/><path fill="#212529" d="M65.777 110.125a1.846 1.846 0 1 0 0-3.691 1.846 1.846 0 0 0 0 3.691Z"/><path fill="#F8F9FA" d="m62.529 142.212-.373-.426a3.98 3.98 0 0 1-.62-1.438c-.41-1.97.62-4.348 2.768-5.892 2.147-1.544 5.129-1.863 6.85-.586.3.226.562.495.78.799.116.147.212.308.285.479 1.082 2.077.07 5.023-2.414 6.851-2.484 1.828-5.626 1.863-7.276.213Z"/><path fill="#212529" d="M65.706 143.754c-1.33 0-2.555-.426-3.425-1.295a5.153 5.153 0 0 1-.408-.462 4.477 4.477 0 0 1-.639-1.348.425.425 0 0 1 .178-.462.43.43 0 0 1 .496-.018c1.651 1.083 4.224.817 6.265-.674 2.041-1.491 3.035-3.674 2.627-5.555l-.195-.905.763.55a3.978 3.978 0 0 1 1.171 1.402c1.171 2.254.071 5.395-2.538 7.294a7.417 7.417 0 0 1-4.295 1.473Zm-3.531-2.626c.089.142.177.302.284.444.096.137.203.268.32.39 1.56 1.544 4.49 1.437 6.814-.249 2.325-1.703 3.319-4.454 2.325-6.406-.089-.142-.16-.284-.266-.444l-.054-.053c-.017 1.881-1.135 3.904-2.999 5.253-1.863 1.349-4.56 1.863-6.424 1.065Z"/><path fill="#212529" d="M64.287 141.555a4.86 4.86 0 0 1-2.964-.922l-.107-.089-.035-.124c-.444-2.148.728-4.668 2.91-6.265 2.183-1.597 5.378-1.97 7.277-.568l.106.089v.124c.462 2.147-.71 4.667-2.892 6.265-1.332.976-2.876 1.49-4.295 1.49Zm-2.432-1.419c1.65 1.135 4.224.887 6.318-.639 1.935-1.402 2.982-3.567 2.662-5.413-1.65-1.136-4.223-.87-6.335.656-2.112 1.527-2.964 3.55-2.645 5.396Z"/><path fill="#212529" d="M71.297 139.23a.354.354 0 0 1-.32-.213l-.745-1.561a.363.363 0 0 1 .178-.48.363.363 0 0 1 .479.178l.728 1.562a.37.37 0 0 1-.178.479l-.142.035ZM69.54 140.739a.361.361 0 0 1-.302-.196l-.585-1.047a.35.35 0 0 1-.037-.279.355.355 0 0 1 .178-.218.375.375 0 0 1 .48.142l.585 1.065a.356.356 0 0 1-.142.479.304.304 0 0 1-.177.054ZM66.434 142.619a.341.341 0 0 1-.32-.196l-.656-1.26a.356.356 0 0 1 .432-.498c.09.03.164.094.207.179l.638 1.26a.355.355 0 0 1-.142.479l-.16.036ZM63.577 140.064c-.284 0-.78-.124-.958-.55-.178-.426.302-1.704 1.846-3.23 1.544-1.527 2.84-2.254 3.869-2.165a1.444 1.444 0 0 1 1.029.496.374.374 0 0 1-.089.497.351.351 0 0 1-.253.059.351.351 0 0 1-.226-.13.785.785 0 0 0-.55-.213c-.462-.035-1.49.196-3.283 1.953-1.793 1.757-1.722 2.395-1.686 2.449.035.053.248.124.301.124h.018a.373.373 0 0 1 .355.337.388.388 0 0 1-.355.373h-.018Z"/><path fill="#F8F9FA" d="M119.977 141.058a6.09 6.09 0 0 0-.036-.799 4.892 4.892 0 0 0-.71-2.112c-1.437-2.449-4.809-3.958-8.536-3.549-4.029.426-7.17 2.963-7.756 5.945a5.228 5.228 0 0 0-.053 1.579c.02.265.068.527.142.781.87 3.213 4.739 5.36 9.104 4.881 4.366-.479 7.685-3.39 7.845-6.726Z"/><path fill="#212529" d="M110.926 148.209c-3.975 0-7.4-2.112-8.234-5.218a5.762 5.762 0 0 1-.16-.834 5.374 5.374 0 0 1 .036-1.509.403.403 0 0 1 .337-.337.414.414 0 0 1 .426.178c1.455 2.325 4.703 3.638 8.128 3.265 3.744-.408 6.797-2.697 7.418-5.572a.395.395 0 0 1 .32-.32.433.433 0 0 1 .408.195c.378.666.613 1.404.692 2.165.029.283.041.568.035.852-.177 3.55-3.673 6.567-8.163 7.064a14.77 14.77 0 0 1-1.243.071Zm-7.72-6.673c0 .177 0 .355.018.532.018.178.089.515.142.746.834 3.088 4.579 5.075 8.732 4.614 4.135-.444 7.365-3.195 7.524-6.389a5.317 5.317 0 0 0-.035-.746 4.362 4.362 0 0 0-.266-1.153c-1.03 2.786-4.1 4.916-7.791 5.306-3.337.373-6.584-.781-8.324-2.91Z"/><path fill="#212529" d="M110.305 144.518c-3.301 0-6.282-1.437-7.667-3.798l-.071-.106.036-.142c.621-3.212 3.94-5.786 8.057-6.229 3.762-.409 7.33 1.082 8.891 3.726l.054.107v.142c-.622 3.23-3.94 5.785-8.058 6.229a9.376 9.376 0 0 1-1.242.071Zm-6.974-4.028c1.437 2.324 4.685 3.638 8.128 3.265 3.744-.408 6.779-2.68 7.4-5.537-1.437-2.343-4.685-3.638-8.128-3.266-3.745.409-6.779 2.662-7.4 5.538Z"/><path fill="#212529" d="M107.216 147.216a.355.355 0 0 1-.355-.302l-.355-3.283a.356.356 0 0 1 .006-.138.35.35 0 0 1 .165-.213.362.362 0 0 1 .393.039.35.35 0 0 1 .129.241l.372 3.265a.344.344 0 0 1-.013.139.354.354 0 0 1-.306.252h-.036ZM110.855 147.855a.359.359 0 0 1-.24-.091.359.359 0 0 1-.115-.229l-.408-3.318a.388.388 0 0 1 .319-.408.344.344 0 0 1 .139.013.354.354 0 0 1 .251.306l.409 3.336a.362.362 0 0 1-.079.262.34.34 0 0 1-.241.129h-.035ZM116.108 146.896a.353.353 0 0 1-.355-.284l-.692-3.638a.374.374 0 0 1 .284-.426.355.355 0 0 1 .408.284l.71 3.656a.355.355 0 0 1-.284.408h-.071ZM106.046 139.903a.353.353 0 0 1-.355-.319c-.018-.071-.071-.71.55-1.367.976-1.047 2.999-1.526 6.034-1.384 3.035.142 4.561.621 4.881 1.526.213.568-.196 1.118-.462 1.349a.354.354 0 0 1-.461-.532s.355-.32.248-.586c-.106-.266-.585-.905-4.241-1.047-3.656-.142-4.881.532-5.449 1.136-.568.603-.39.816-.39.834a.374.374 0 0 1-.32.39h-.035ZM74.793 80.7c-1.544 0-2.396-1.029-2.787-1.739-.425.497-1.295 1.1-2.945.923-2.308-.266-2.805-2.325-2.893-3.354-.657.266-1.97.71-3.07-.177-.835-.675-1.136-1.704-.835-2.858-.922.107-2.555-.106-3.549-1.189-.994-1.082-1.047-2.112-.674-3.691-.888.177-1.9.195-2.325-.373-.426-.568-.213-1.047.284-1.846l.603.373c-.461.746-.355.994-.32 1.047.036.053.8.302 1.917.036a.534.534 0 0 1 .48.142.57.57 0 0 1 .124.497c-.408 1.473-.249 2.59.426 3.336.674.746 2.449 1.065 3.07.958a.568.568 0 0 1 .568.178.621.621 0 0 1 .124.586c-.195.656-.266 1.579.55 2.253.817.675 1.864.302 2.574-.035l.07-.036a.445.445 0 0 1 .444.036.515.515 0 0 1 .23.39c.019.64.232 2.787 2.273 3.017 1.597.178 2.253-.479 2.502-.887a.462.462 0 0 1 .444-.23.426.426 0 0 1 .39.266c.248.532.958 1.757 2.484 1.668 1.527-.089 1.846-.959 1.988-1.491a.444.444 0 0 1 .337-.337.531.531 0 0 1 .48.142c.514.585 1.898 1.845 3.567.87 1.668-.977 1.278-1.81.923-2.503a.514.514 0 0 1 .07-.55.496.496 0 0 1 .533-.107c.816.32 2.698.621 3.212.018.515-.603-.177-2.165-.444-2.59a.568.568 0 0 1-.035-.48.532.532 0 0 1 .373-.302c.514-.106 2.2-.55 2.786-1.739.32-.674.248-1.508-.213-2.467a.568.568 0 0 1 .315-.794.586.586 0 0 1 .324-.022c.674.124 2.29.337 2.467-.586l.692.142c-.213 1.047-1.313 1.473-3.053 1.171.462 1.083.497 2.041.107 2.858-.639 1.295-2.183 1.863-3.017 2.076.426.781 1.065 2.254.248 3.195-.816.94-2.59.603-3.55.337.232.745.267 2.005-1.383 2.964-1.65.958-3.461-.036-4.189-.728-.266.639-.922 1.544-2.502 1.633h-.195Z"/><path fill="#F8F9FA" d="M51.083 61.959a5.413 5.413 0 0 1-2.396-.621l-.071-.036a.372.372 0 0 1-.145-.606.355.355 0 0 1 .251-.104.622.622 0 0 1 .302.107c2.307 1.189 4.437.426 6.158-2.219a.354.354 0 0 1 .593-.01.336.336 0 0 1-.007.383c-1.314 2.059-2.928 3.106-4.685 3.106Z"/><path fill="#212529" d="M109.329 104.658h-.054a.37.37 0 0 1-.301-.408c.053-.249 3.744-25.947-1.828-33.028-.036-.035-2.84-3.62-4.295-4.667-1.029-.746-.994-2.2-.39-3.124.603-.923 1.508-1.136 2.413-.603a.34.34 0 0 1 .167.212.337.337 0 0 1-.043.267.356.356 0 0 1-.479.124c-.798-.461-1.295.107-1.473.373-.426.674-.444 1.704.213 2.165 1.544 1.118 4.33 4.668 4.437 4.81 5.768 7.33 2.147 32.512 1.988 33.577a.354.354 0 0 1-.355.302Z"/></svg>